{"title":"[Seiakusetsu] Sakura Trick - 03 (1280x720 h264 AAC) [3022adbf].m","uid":9523241,"size":261107922,"categoryP":"video","categoryS":"hd___tv_shows","magnet":"?xt=urn:btih:91c905676772dac741e78c2baf8cf0fd009e1fe1&amp;dn=%5BSeiakusetsu%5D+Sakura+Trick+-+03+%281280x720+h264+AAC%29+%5B3022adbf%5D.m&amp;tr=udp%3A%2F%2Ftracker.openbittorrent.com%3A80&amp;tr=udp%3A%2F%2Fopen.demonii.com%3A1337&amp;tr=udp%3A%2F%2Ftracker.coppersurfer.tk%3A6969&amp;tr=udp%3A%2F%2Fexodus.desync.com%3A6969","seeders":0,"leechers":0,"uploader":null,"files":-1,"time":1390684421,"description":"Anime: Sakura Trick\nEpisode: 03\n\n\nVIDEO\n=====\nID : 1\nFormat : MPEG-4 (playable on PS3, Xbox 360, etc.)\nFormat/Info : Advanced Video Codec\nFormat profile : &lt;a class=&quot;__cf_email__&quot; href=&quot;/cdn-cgi/l/email-protection&quot; data-cfemail=&quot;226a4b454a626e160c13&quot;&gt;[email&amp;#160;protected]&lt;/a&gt;&lt;script cf-hash='f9e31' type=&quot;text/javascript&quot;&gt;\n/* &lt;![CDATA[ */!function(){try{var t=&quot;currentScript&quot;in document?document.currentScript:function(){for(var t=document.getElementsByTagName(&quot;script&quot;),e=t.length;e--;)if(t[e].getAttribute(&quot;cf-hash&quot;))return t[e]}();if(t&amp;&amp;t.previousSibling){var e,r,n,i,c=t.previousSibling,a=c.getAttribute(&quot;data-cfemail&quot;);if(a){for(e=&quot;&quot;,r=parseInt(a.substr(0,2),16),n=2;a.length-n;n+=2)i=parseInt(a.substr(n,2),16)^r,e+=String.fromCharCode(i);e=document.createTextNode(e),c.parentNode.replaceChild(e,c)}}}catch(u){}}();/* ]]&gt; */&lt;/script&gt;\nFormat settings, CABAC : Yes\nFormat settings, ReFrames : 2 frames\nCodec ID : avc1\nCodec ID/Info : Advanced Video Coding\nDuration : 24mn 9s\nBit rate : 1 301 Kbps\nMaximum bit rate : 6 773 Kbps\nWidth : 1 280 pixels\nHeight : 720 pixels\nDisplay aspect ratio : 16:9\nFrame rate mode : Constant\nFrame rate : 23.976 fps\nColor space : YUV\nChroma subsampling : 4:2:0\nBit depth : 8 bits\nScan type : Progressive\nBits/(Pixel*Frame) : 0.059\nStream size : 225 MiB (90%)\n\n\nAUDIO\n=====\nID : 2\nFormat : AAC\nFormat/Info : Advanced Audio Codec\nFormat profile : LC\nCodec ID : 40\nDuration : 24mn 9s\nBit rate mode : Variable\nBit rate : 137 Kbps\nMaximum bit rate : 182 Kbps\nChannel count : 2 channels\nChannel positions : Front: L R\nSampling rate : 48.0 KHz\nCompression mode : Lossy\nDelay relative to video : 42ms\nStream size : 23.7 MiB (9%)\n\n\nSUBTITLES\n========\nEnglish subtitles from Doki fansubs\n\n\nscreenshots: &lt;a href=&quot;\nhttp://i.imgur.com/4bFSk2v.jpg&quot; rel=&quot;nofollow&quot; target=&quot;_NEW&quot;&gt;\nhttp://i.imgur.com/4bFSk2v.jpg&lt;/a&gt;","torrent":{"xt":"urn:btih:91c905676772dac741e78c2baf8cf0fd009e1fe1","amp;dn":"%5BSeiakusetsu%5D+Sakura+Trick+-+03+%281280x720+h264+AAC%29+%5B3022adbf%5D.m","amp;tr":["udp%3A%2F%2Ftracker.openbittorrent.com%3A80","udp%3A%2F%2Fopen.demonii.com%3A1337","udp%3A%2F%2Ftracker.coppersurfer.tk%3A6969","udp%3A%2F%2Fexodus.desync.com%3A6969"],"infoHash":"91c905676772dac741e78c2baf8cf0fd009e1fe1","infoHashBuffer":{"type":"Buffer","data":[145,201,5,103,103,114,218,199,65,231,140,43,175,140,240,253,0,158,31,225]},"announce":[],"urlList":[]}}